<svg width="127" height="110" viewBox="0 0 127 110" fill="none" xmlns="http://www.w3.org/2000/svg">
<path d="M69.5 93.3949C66.3 103.395 49.8333 107.895 42 108.895C47 109.895 65.5 109.395 69.5 108.395C76 106.895 88 95.5 89.5 94.5C102 89 107.833 82.3949 108.5 80.8949C116 98.3949 104.5 105.395 105.5 104.895C123 96.8949 123 82.8949 122.5 79.8949C121 72.8949 116 67.8949 116 60.8949C116 55.2949 121 48.8949 123.5 46.3949C117.5 45.9949 109.333 55.2282 106 59.8949C105.833 60.2282 105.4 61.3949 105 63.3949C101.5 81.3949 91 78.8949 90.5 78.3949C90.1 73.9949 92.6667 70.5616 94 69.3949C87.1667 73.2282 72.7 83.3949 69.5 93.3949Z" fill="#22C55E" stroke="#41E046" stroke-opacity="0.4"/>
<path d="M64.5 90.3949C60 95.8949 58 98.7846 48.5 102.895C42 104.895 35.5 105.895 26.5 102.895C19.3809 98.7774 14.2392 94.226 9.59754 87.437C4.95583 80.6481 1.89571 72.9045 0.642409 64.7765C-0.610888 56.6485 -0.0254486 48.3429 2.35563 40.471C4.73672 32.5991 8.85283 25.3614 14.401 19.2907C19.9491 13.22 28.5 6.39491 38 2.89487C47 -0.737683 117.792 -0.123682 126 0.394878C126 0.394878 129 5.39491 122 12.8949C115 20.3949 109 21.3949 109 21.3949C104.291 21.0974 55 20 47.5 21.5C40 23 33.5 30 30 35C26.5 40 26.1642 42.7434 24.7982 47.2594C23.4322 51.7755 23.0963 56.5404 23.8153 61.2034C24.5343 65.8664 26.2899 70.3088 28.9528 74.2036C31.6158 78.0984 35.1182 81.3464 39.2024 83.7086C43.2866 86.0708 47.8486 87.487 52.5525 87.853C57.2564 88.219 61.9825 87.5254 66.3829 85.8233L64.5 90.3949Z" fill="#2563EB"/>
<path d="M102.041 27.8967C106.064 34.537 106.549 40.1894 107.5 47.8949C102.5 52.8949 100.288 56.4758 98 63.8949C95.6569 63.8949 96.5 63.8949 92 63.8949C87.5 63.8949 85.1519 65.6937 85.1519 65.6937C86.4646 61.4374 87.4912 53.1142 85 44.3949C83 37.3949 76.3079 31.7062 74 27.8966L102.041 27.8967Z" fill="#2563EB"/>
<path d="M101.756 28.3967C105.541 34.7589 106.051 40.2103 106.974 47.716C104.546 50.1592 102.762 52.2929 101.304 54.7306C99.8592 57.1457 98.7483 59.8402 97.6348 63.3947H92C89.6819 63.3947 87.908 63.8581 86.7061 64.3283C86.426 64.4379 86.1773 64.5482 85.96 64.6525C87.1155 60.0744 87.7881 52.3348 85.4805 44.258C84.4524 40.6596 82.228 37.4234 80.0068 34.6379C78.8967 33.2457 77.77 31.9452 76.7949 30.7765C76.0732 29.9115 75.4356 29.1191 74.9277 28.3967H101.756Z" stroke="#2563EB" stroke-opacity="0.36"/>
</svg>
