<svg width="274" height="168" viewBox="0 0 274 168" fill="none" xmlns="http://www.w3.org/2000/svg">
<path d="M30.24 153.936V156H0V153.936H6.144C4.608 153.136 3.2 152.144 1.92 150.96L5.472 146.688C8.864 149.632 12.384 151.104 16.032 151.104C17.856 151.104 19.296 150.72 20.352 149.952C21.44 149.152 21.984 148.112 21.984 146.832C21.984 145.52 21.472 144.512 20.448 143.808C19.456 143.072 17.728 142.416 15.264 141.84C12.8 141.232 10.928 140.688 9.648 140.208C8.368 139.696 7.232 139.04 6.24 138.24C4.256 136.736 3.264 134.432 3.264 131.328C3.264 128.224 4.384 125.84 6.624 124.176C8.896 122.48 11.696 121.632 15.024 121.632C17.168 121.632 19.296 121.984 21.408 122.688C23.52 123.392 25.344 124.384 26.88 125.664L23.856 129.936C22.864 129.04 21.52 128.304 19.824 127.728C18.128 127.152 16.448 126.864 14.784 126.864C13.152 126.864 11.808 127.2 10.752 127.872C9.696 128.544 9.168 129.568 9.168 130.944C9.168 132.288 9.696 133.328 10.752 134.064C11.808 134.768 14.048 135.536 17.472 136.368C20.928 137.2 23.52 138.368 25.248 139.872C27.008 141.376 27.888 143.488 27.888 146.208C27.888 149.504 26.672 152.08 24.24 153.936H30.24ZM34.8904 153.936V122.448H40.5544V153.936H45.2104V156H30.2344V153.936H34.8904ZM81.5235 153.936V156H45.1875V153.936H56.8035C54.0195 152.528 51.7955 150.464 50.1315 147.744C48.4995 145.024 47.6835 141.952 47.6835 138.528C47.6835 133.632 49.3795 129.6 52.7715 126.432C56.1635 123.232 60.2755 121.632 65.1075 121.632C69.9715 121.632 74.0035 123.04 77.2035 125.856L74.1795 130.176C72.8675 129.056 71.5395 128.288 70.1955 127.872C68.8835 127.424 67.3475 127.2 65.5875 127.2C62.1635 127.2 59.2995 128.224 56.9955 130.272C54.7235 132.32 53.5875 135.12 53.5875 138.672C53.5875 142.224 54.7075 145.088 56.9475 147.264C59.1875 149.408 61.8915 150.48 65.0595 150.48C68.2595 150.48 70.9315 149.792 73.0755 148.416V139.2H78.7395V150.672C77.5555 151.984 76.1155 153.072 74.4195 153.936H81.5235ZM128.7 153.936V156H118.38V129.792L106.668 153.072H103.5L91.8356 129.792V156H81.5156V153.936H86.1716V122.448H95.0036L105.132 143.52L115.26 122.448H124.044V153.936H128.7ZM168.991 153.936V156H158.287L154.927 148.368H138.127L134.767 156H124.063V153.936H129.631L143.503 122.448H149.551L163.423 153.936H168.991ZM152.623 143.136L146.527 129.312L140.431 143.136H152.623Z" fill="#2563EB"/>
<path d="M143.5 93.3949C140.3 103.395 123.833 107.895 116 108.895C121 109.895 139.5 109.395 143.5 108.395C150 106.895 162 95.5 163.5 94.5C176 89 181.833 82.3949 182.5 80.8949C190 98.3949 178.5 105.395 179.5 104.895C197 96.8949 197 82.8949 196.5 79.8949C195 72.8949 190 67.8949 190 60.8949C190 55.2949 195 48.8949 197.5 46.3949C191.5 45.9949 183.333 55.2282 180 59.8949C179.833 60.2282 179.4 61.3949 179 63.3949C175.5 81.3949 165 78.8949 164.5 78.3949C164.1 73.9949 166.667 70.5616 168 69.3949C161.167 73.2282 146.7 83.3949 143.5 93.3949Z" fill="#22C55E" stroke="#41E046" stroke-opacity="0.4"/>
<path d="M138.5 90.3949C134 95.8949 132 98.7846 122.5 102.895C116 104.895 109.5 105.895 100.5 102.895C93.3809 98.7774 88.2392 94.226 83.5975 87.437C78.9558 80.6481 75.8957 72.9045 74.6424 64.7765C73.3891 56.6485 73.9746 48.3429 76.3556 40.471C78.7367 32.5991 82.8528 25.3614 88.401 19.2907C93.9491 13.22 102.5 6.39491 112 2.89487C121 -0.737683 191.792 -0.123682 200 0.394878C200 0.394878 203 5.39491 196 12.8949C189 20.3949 183 21.3949 183 21.3949C178.291 21.0974 129 20 121.5 21.5C114 23 107.5 30 104 35C100.5 40 100.164 42.7434 98.7982 47.2594C97.4322 51.7755 97.0963 56.5404 97.8153 61.2034C98.5343 65.8664 100.29 70.3088 102.953 74.2036C105.616 78.0984 109.118 81.3464 113.202 83.7086C117.287 86.0708 121.849 87.487 126.552 87.853C131.256 88.219 135.982 87.5254 140.383 85.8233L138.5 90.3949Z" fill="#2563EB"/>
<path d="M176.041 27.8967C180.064 34.537 180.549 40.1894 181.5 47.8949C176.5 52.8949 174.288 56.4758 172 63.8949C169.657 63.8949 170.5 63.8949 166 63.8949C161.5 63.8949 159.152 65.6937 159.152 65.6937C160.465 61.4374 161.491 53.1142 159 44.3949C157 37.3949 150.308 31.7062 148 27.8966L176.041 27.8967Z" fill="#2563EB"/>
<path d="M175.756 28.3967C179.541 34.7589 180.051 40.2103 180.974 47.716C178.546 50.1592 176.762 52.2929 175.304 54.7306C173.859 57.1457 172.748 59.8402 171.635 63.3947H166C163.682 63.3947 161.908 63.8581 160.706 64.3283C160.426 64.4379 160.177 64.5482 159.96 64.6525C161.116 60.0744 161.788 52.3348 159.48 44.258C158.452 40.6596 156.228 37.4234 154.007 34.6379C152.897 33.2457 151.77 31.9452 150.795 30.7765C150.073 29.9115 149.436 29.1191 148.928 28.3967H175.756Z" stroke="#2563EB" stroke-opacity="0.36"/>
<path d="M197.832 153.936V156H165V153.936H169.656V122.448H181.176C186.264 122.448 189.976 123.424 192.312 125.376C194.648 127.328 195.816 130.336 195.816 134.4C195.816 138.464 194.616 141.44 192.216 143.328C189.848 145.216 186.2 146.16 181.272 146.16H175.32V153.936H197.832ZM181.896 141.024C185.032 141.024 187.16 140.432 188.28 139.248C189.432 138.032 190.008 136.272 190.008 133.968C190.008 131.632 189.288 129.984 187.848 129.024C186.408 128.064 184.152 127.584 181.08 127.584H175.32V141.024H181.896ZM233.957 153.936V156H223.589L215.573 144.72H208.133V156H197.812V153.936H202.469V122.448H214.949C220.069 122.448 223.733 123.312 225.941 125.04C228.149 126.768 229.253 129.536 229.253 133.344C229.253 138.88 226.837 142.368 222.005 143.808L229.301 153.936H233.957ZM215.189 139.584C218.389 139.584 220.565 139.088 221.717 138.096C222.869 137.104 223.445 135.52 223.445 133.344C223.445 131.136 222.853 129.632 221.669 128.832C220.485 128 218.373 127.584 215.333 127.584H208.133V139.584H215.189ZM273.054 153.936V156H232.734V153.936H243.726C241.102 152.432 239.022 150.368 237.486 147.744C235.982 145.12 235.23 142.192 235.23 138.96C235.23 134.032 236.926 129.92 240.318 126.624C243.71 123.296 247.902 121.632 252.894 121.632C257.886 121.632 262.078 123.296 265.47 126.624C268.862 129.92 270.558 134.032 270.558 138.96C270.558 142.16 269.79 145.088 268.254 147.744C266.75 150.4 264.686 152.464 262.062 153.936H273.054ZM261.294 130.368C259.022 128 256.222 126.816 252.894 126.816C249.566 126.816 246.75 128 244.446 130.368C242.174 132.736 241.038 135.616 241.038 139.008C241.038 142.368 242.174 145.232 244.446 147.6C246.75 149.968 249.566 151.152 252.894 151.152C256.222 151.152 259.022 149.968 261.294 147.6C263.598 145.232 264.75 142.368 264.75 139.008C264.75 135.616 263.598 132.736 261.294 130.368Z" fill="black"/>
</svg>
